<svg width="302" height="71" viewBox="0 0 302 71" fill="none" xmlns="http://www.w3.org/2000/svg">
<g filter="url(#filter0_d_704_163)">
<path d="M67.7422 62.2002H63.0084L71.6272 37.7185H77.1021L85.7329 62.2002H80.9991L74.4603 42.7391H74.269L67.7422 62.2002ZM67.8976 52.6012H80.8079V56.1634H67.8976V52.6012ZM104.39 37.7185H108.825V53.7129C108.825 55.4661 108.411 57.0082 107.582 58.3391C106.761 59.6699 105.605 60.7099 104.115 61.459C102.625 62.2002 100.884 62.5708 98.8912 62.5708C96.8909 62.5708 95.1456 62.2002 93.6554 61.459C92.1651 60.7099 91.0096 59.6699 90.1887 58.3391C89.3679 57.0082 88.9575 55.4661 88.9575 53.7129V37.7185H93.3924V53.3423C93.3924 54.3624 93.6155 55.2709 94.0618 56.0678C94.5161 56.8647 95.1536 57.4903 95.9744 57.9446C96.7953 58.3909 97.7675 58.614 98.8912 58.614C100.015 58.614 100.987 58.3909 101.808 57.9446C102.637 57.4903 103.274 56.8647 103.721 56.0678C104.167 55.2709 104.39 54.3624 104.39 53.3423V37.7185ZM112.57 41.4362V37.7185H132.102V41.4362H124.535V62.2002H120.136V41.4362H112.57ZM156.659 49.9593C156.659 52.5972 156.165 54.8565 155.176 56.7372C154.196 58.61 152.857 60.0445 151.16 61.0407C149.47 62.0368 147.554 62.5349 145.41 62.5349C143.266 62.5349 141.346 62.0368 139.648 61.0407C137.959 60.0365 136.62 58.5981 135.632 56.7253C134.651 54.8445 134.161 52.5892 134.161 49.9593C134.161 47.3215 134.651 45.0662 135.632 43.1934C136.62 41.3126 137.959 39.8742 139.648 38.878C141.346 37.8819 143.266 37.3838 145.41 37.3838C147.554 37.3838 149.47 37.8819 151.16 38.878C152.857 39.8742 154.196 41.3126 155.176 43.1934C156.165 45.0662 156.659 47.3215 156.659 49.9593ZM152.2 49.9593C152.2 48.1025 151.909 46.5365 151.327 45.2614C150.753 43.9784 149.957 43.0101 148.936 42.3566C147.916 41.6952 146.741 41.3644 145.41 41.3644C144.079 41.3644 142.904 41.6952 141.884 42.3566C140.864 43.0101 140.063 43.9784 139.481 45.2614C138.907 46.5365 138.62 48.1025 138.62 49.9593C138.62 51.8162 138.907 53.3861 139.481 54.6692C140.063 55.9443 140.864 56.9126 141.884 57.574C142.904 58.2275 144.079 58.5542 145.41 58.5542C146.741 58.5542 147.916 58.2275 148.936 57.574C149.957 56.9126 150.753 55.9443 151.327 54.6692C151.909 53.3861 152.2 51.8162 152.2 49.9593ZM160.397 62.2002V59.4388L172.949 41.4362H160.326V37.7185H178.448V40.4799L165.908 58.4825H178.52V62.2002H160.397ZM185.955 62.2002H181.221L189.84 37.7185H195.315L203.946 62.2002H199.212L192.673 42.7391H192.482L185.955 62.2002ZM186.11 52.6012H199.021V56.1634H186.11V52.6012ZM207.17 62.2002V37.7185H211.605V58.4825H222.388V62.2002H207.17ZM247.159 49.9593C247.159 52.5972 246.665 54.8565 245.677 56.7372C244.697 58.61 243.358 60.0445 241.66 61.0407C239.971 62.0368 238.054 62.5349 235.91 62.5349C233.767 62.5349 231.846 62.0368 230.149 61.0407C228.459 60.0365 227.12 58.5981 226.132 56.7253C225.152 54.8445 224.662 52.5892 224.662 49.9593C224.662 47.3215 225.152 45.0662 226.132 43.1934C227.12 41.3126 228.459 39.8742 230.149 38.878C231.846 37.8819 233.767 37.3838 235.91 37.3838C238.054 37.3838 239.971 37.8819 241.66 38.878C243.358 39.8742 244.697 41.3126 245.677 43.1934C246.665 45.0662 247.159 47.3215 247.159 49.9593ZM242.7 49.9593C242.7 48.1025 242.409 46.5365 241.828 45.2614C241.254 43.9784 240.457 43.0101 239.437 42.3566C238.417 41.6952 237.241 41.3644 235.91 41.3644C234.58 41.3644 233.404 41.6952 232.384 42.3566C231.364 43.0101 230.563 43.9784 229.981 45.2614C229.408 46.5365 229.121 48.1025 229.121 49.9593C229.121 51.8162 229.408 53.3861 229.981 54.6692C230.563 55.9443 231.364 56.9126 232.384 57.574C233.404 58.2275 234.58 58.5542 235.91 58.5542C237.241 58.5542 238.417 58.2275 239.437 57.574C240.457 56.9126 241.254 55.9443 241.828 54.6692C242.409 53.3861 242.7 51.8162 242.7 49.9593ZM267.753 45.5364C267.554 44.8909 267.279 44.3131 266.928 43.8031C266.585 43.285 266.171 42.8427 265.685 42.4762C265.207 42.1096 264.657 41.8346 264.035 41.6513C263.414 41.4601 262.736 41.3644 262.003 41.3644C260.688 41.3644 259.517 41.6952 258.489 42.3566C257.46 43.0181 256.652 43.9903 256.062 45.2734C255.48 46.5485 255.189 48.1025 255.189 49.9354C255.189 51.7843 255.48 53.3503 256.062 54.6333C256.644 55.9164 257.453 56.8926 258.489 57.5621C259.525 58.2235 260.728 58.5542 262.099 58.5542C263.342 58.5542 264.418 58.3152 265.326 57.837C266.243 57.3588 266.948 56.6815 267.442 55.8048C267.936 54.9202 268.183 53.8842 268.183 52.6968L269.187 52.8522H262.541V49.3856H272.475V52.3262C272.475 54.4222 272.028 56.2352 271.136 57.7653C270.243 59.2954 269.016 60.4748 267.454 61.3036C265.892 62.1245 264.099 62.5349 262.075 62.5349C259.819 62.5349 257.839 62.0289 256.134 61.0168C254.436 59.9967 253.109 58.5503 252.153 56.6775C251.205 54.7967 250.73 52.5653 250.73 49.9832C250.73 48.0069 251.009 46.2417 251.567 44.6876C252.133 43.1336 252.922 41.8147 253.934 40.7309C254.946 39.6391 256.134 38.8103 257.496 38.2445C258.859 37.6707 260.341 37.3838 261.943 37.3838C263.298 37.3838 264.561 37.583 265.733 37.9815C266.904 38.372 267.944 38.9298 268.853 39.655C269.769 40.3802 270.522 41.2409 271.112 42.2371C271.702 43.2332 272.088 44.333 272.271 45.5364H267.753Z" fill="white"/>
</g>
<g filter="url(#filter1_d_704_163)">
<path d="M158.354 0.211731C155.129 0.379536 150.031 0.799053 147.024 1.13467C144.017 1.47028 136.696 1.8898 130.682 2.01566C124.712 2.14151 114.776 2.43518 108.675 2.64494C102.574 2.85469 92.1585 3.14836 85.5782 3.31617C78.9979 3.48397 72.8969 3.65178 72.069 3.69373C71.241 3.73568 67.7111 3.81959 64.2684 3.86154C49.8876 3.98739 61.3487 4.53277 97.5623 5.41376C103.794 5.58156 109.285 5.74937 109.764 5.79132C110.244 5.83327 113.338 5.91718 116.65 5.95913C119.918 5.95913 122.62 6.12694 122.62 6.29474C122.62 6.5045 120.484 7.4694 117.913 8.47624C112.597 10.5319 113.904 10.3641 88.0186 12.126C82.0484 12.5456 77.3419 12.9231 77.5598 13.007C77.7777 13.049 82.1791 13.3846 87.3214 13.7622C99.6976 14.6012 103.184 14.8949 103.358 15.0207C103.402 15.0627 102.138 15.8598 100.526 16.8247L97.5623 18.5027L81.8741 18.8383C73.2456 19.0061 65.4886 19.174 64.6606 19.2159C63.8327 19.2579 59.5184 19.3418 55.117 19.3837C50.7156 19.3837 47.1857 19.5096 47.3165 19.6354C47.6215 19.9291 53.7661 20.1808 69.89 20.4745C77.2112 20.6423 84.5759 20.852 86.2319 20.9359C87.9314 21.0198 90.1539 21.1037 91.2434 21.1037L93.2044 21.1457L91.6792 21.9428C89.2388 23.2433 87.4521 23.5789 80.741 24.0404C77.2983 24.2501 73.2891 24.5438 71.8511 24.6696C70.413 24.7955 61.0001 25.4667 50.9335 26.1799C40.9105 26.8511 32.6306 27.4804 32.5434 27.5224C32.4999 27.6063 38.7751 28.0677 46.4885 28.6131C54.2019 29.1585 60.5643 29.62 60.6079 29.6619C60.6514 29.7039 59.867 31.2561 58.8647 33.1439C56.6858 37.2552 58.0803 36.8776 42.6536 37.2971C36.9013 37.465 31.7155 37.6328 31.1054 37.6747C30.4953 37.7586 27.8806 37.8425 25.2223 37.8845L20.4287 38.0103L24.5686 38.3459C26.8347 38.5137 34.7659 38.8494 42.1742 39.1011C49.5826 39.3528 55.7271 39.6045 55.8142 39.6884C55.8578 39.7723 55.5964 40.905 55.2042 42.2055L54.5069 44.5968L49.2339 44.6387C46.3142 44.6807 43.0894 44.7226 42.0435 44.8065C40.9976 44.8485 34.9838 45.0163 28.7521 45.1841C15.2864 45.4777 5.26343 45.8973 5.00196 46.107C4.9148 46.1909 7.74739 46.2748 11.3208 46.3168C14.8942 46.3168 18.6855 46.4007 19.775 46.4846C20.8645 46.5685 27.6191 46.7363 34.8095 46.9041C51.2821 47.2397 53.3303 47.3656 53.984 48.2046C54.3762 48.75 54.9863 47.8271 57.3831 43.2543C61.1308 36.1644 63.7019 32.7663 66.3602 31.5078C68.2776 30.5849 68.7134 30.5429 78.5621 30.6688C86.4062 30.7527 89.326 30.6268 91.2434 30.1653C92.6379 29.8297 98.521 27.2287 104.36 24.376C116.693 18.3769 123.666 15.6081 133.079 12.9651C147.634 8.93771 157.918 7.46939 171.863 7.51134C180.622 7.51134 182.845 7.6372 187.334 8.43429C196.441 10.1124 205.854 13.049 212.609 16.4051C215.006 17.5798 215.093 17.7056 213.916 17.7476C213.219 17.7895 211.737 17.8735 210.648 17.9154C209.558 17.9993 202.324 18.2091 194.524 18.3769C173.955 18.8383 172.081 19.2159 188.205 19.5935C195.657 19.7613 202.717 19.971 203.893 20.0549C205.113 20.1388 209.123 20.2647 212.827 20.3067C219.102 20.3906 221.978 20.7681 221.978 21.4813C221.978 21.6491 214.352 22.2364 204.983 22.7818C195.657 23.3272 188.249 23.9145 188.554 24.0823C188.815 24.2082 191.43 24.4599 194.306 24.6277C197.182 24.7955 206.639 25.3828 215.267 25.9282C230.215 26.8511 231.13 26.977 233.178 27.9838C238.582 30.5849 259.543 32.8503 278.761 32.8503C287.694 32.8503 288.479 33.06 291.05 35.9127C293.316 38.3879 294.667 41.7021 295.538 46.988C296.323 51.6866 297.151 52.5676 296.977 48.5402C296.715 41.4923 294.58 35.9547 291.05 32.9342C288.609 30.8785 286.997 30.5009 278.63 30.1234C264.772 29.5361 245.249 27.0189 238.756 25.0472C236.403 24.2921 232.437 22.0686 232.437 21.4813C232.437 21.2715 232.219 21.1037 231.914 21.1037C231.653 21.1037 228.733 19.4257 225.465 17.3281C204.068 3.81959 184.675 -1.13073 158.354 0.211731Z" fill="url(#paint0_linear_704_163)"/>
</g>
<defs>
<filter id="filter0_d_704_163" x="63.0088" y="37.3838" width="214.332" height="32.4865" filterUnits="userSpaceOnUse" color-interpolation-filters="sRGB">
<feFlood flood-opacity="0" result="BackgroundImageFix"/>
<feColorMatrix in="SourceAlpha" type="matrix" values="0 0 0 0 0 0 0 0 0 0 0 0 0 0 0 0 0 0 127 0" result="hardAlpha"/>
<feOffset dx="2.43333" dy="4.86667"/>
<feGaussianBlur stdDeviation="1.21667"/>
<feComposite in2="hardAlpha" operator="out"/>
<feColorMatrix type="matrix" values="0 0 0 0 0.117647 0 0 0 0 0.192157 0 0 0 0 0.870588 0 0 0 1 0"/>
<feBlend mode="normal" in2="BackgroundImageFix" result="effect1_dropShadow_704_163"/>
<feBlend mode="normal" in="SourceGraphic" in2="effect1_dropShadow_704_163" result="shape"/>
</filter>
<filter id="filter1_d_704_163" x="0.133333" y="0" width="301.733" height="60.8329" filterUnits="userSpaceOnUse" color-interpolation-filters="sRGB">
<feFlood flood-opacity="0" result="BackgroundImageFix"/>
<feColorMatrix in="SourceAlpha" type="matrix" values="0 0 0 0 0 0 0 0 0 0 0 0 0 0 0 0 0 0 127 0" result="hardAlpha"/>
<feOffset dy="4.86667"/>
<feGaussianBlur stdDeviation="2.43333"/>
<feComposite in2="hardAlpha" operator="out"/>
<feColorMatrix type="matrix" values="0 0 0 0 0 0 0 0 0 0 0 0 0 0 0 0 0 0 0.25 0"/>
<feBlend mode="normal" in2="BackgroundImageFix" result="effect1_dropShadow_704_163"/>
<feBlend mode="normal" in="SourceGraphic" in2="effect1_dropShadow_704_163" result="shape"/>
</filter>
<linearGradient id="paint0_linear_704_163" x1="48.5192" y1="51.0996" x2="285.753" y2="-22.9362" gradientUnits="userSpaceOnUse">
<stop stop-color="#FF7A00"/>
<stop offset="1" stop-color="#FF9900"/>
</linearGradient>
</defs>
</svg>
