<svg width="43" height="43" viewBox="0 0 43 43" fill="none" xmlns="http://www.w3.org/2000/svg">
<path d="M21.5 43C33.3741 43 43 33.3741 43 21.5C43 9.62588 33.3741 0 21.5 0C9.62588 0 0 9.62588 0 21.5C0 33.3741 9.62588 43 21.5 43Z" fill="url(#paint0_linear_901_70)"/>
<path fill-rule="evenodd" clip-rule="evenodd" d="M9.73214 21.273C15.9998 18.5423 20.1793 16.742 22.2705 15.8722C28.2412 13.3888 29.4819 12.9574 30.2906 12.9432C30.4684 12.94 30.8661 12.9841 31.1237 13.1931C31.3412 13.3696 31.4011 13.608 31.4297 13.7754C31.4583 13.9427 31.494 14.3239 31.4656 14.6217C31.1421 18.0214 29.742 26.2715 29.0298 30.0791C28.7284 31.6903 28.135 32.2305 27.5605 32.2834C26.3119 32.3983 25.3638 31.4583 24.1546 30.6656C22.2623 29.4252 21.1933 28.653 19.3565 27.4426C17.2338 26.0437 18.6098 25.2749 19.8196 24.0184C20.1361 23.6896 25.6373 18.6859 25.7437 18.232C25.7571 18.1752 25.7694 17.9636 25.6437 17.8519C25.518 17.7402 25.3324 17.7784 25.1986 17.8088C25.0088 17.8518 21.9858 19.8499 16.1297 23.8029C15.2717 24.3921 14.4945 24.6792 13.7981 24.6641C13.0305 24.6476 11.5538 24.2301 10.4561 23.8733C9.10962 23.4356 8.03949 23.2042 8.13268 22.4609C8.18121 22.0737 8.71437 21.6778 9.73214 21.273Z" fill="white"/>
<defs>
<linearGradient id="paint0_linear_901_70" x1="21.5" y1="0" x2="21.5" y2="42.6811" gradientUnits="userSpaceOnUse">
<stop stop-color="#2CA4E0"/>
<stop offset="1" stop-color="#0D83BF"/>
</linearGradient>
</defs>
</svg>
