<svg width="42" height="42" viewBox="0 0 42 42" fill="none" xmlns="http://www.w3.org/2000/svg">
<path d="M0 20.16C0 10.6565 0 5.90473 2.95236 2.95236C5.90473 0 10.6565 0 20.16 0H21.84C31.3436 0 36.0952 0 39.0477 2.95236C42 5.90473 42 10.6565 42 20.16V21.84C42 31.3436 42 36.0952 39.0477 39.0477C36.0952 42 31.3436 42 21.84 42H20.16C10.6565 42 5.90473 42 2.95236 39.0477C0 36.0952 0 31.3436 0 21.84V20.16Z" fill="url(#paint0_linear_901_71)"/>
<path d="M15.4566 29.3839L15.841 29.574C17.4433 30.5242 19.2378 30.9676 21.0323 30.9676C26.672 30.9676 31.2863 26.4067 31.2863 20.8323C31.2863 18.1718 30.1968 15.5746 28.2742 13.6742C26.3515 11.7738 23.788 10.697 21.0323 10.697C15.3925 10.697 10.7781 15.2579 10.8422 20.8957C10.8422 22.796 11.419 24.6331 12.3803 26.2166L12.6366 26.5968L11.6113 30.3342L15.4566 29.3839Z" fill="#31D652"/>
<path d="M29.3637 12.6607C27.1847 10.4436 24.1725 9.24 21.0963 9.24C14.5594 9.24 9.30413 14.4977 9.36817 20.8956C9.36817 22.9227 9.94496 24.8864 10.9063 26.6601L9.24 32.6779L15.4565 31.0943C17.1869 32.0445 19.1095 32.4879 21.0323 32.4879C27.5051 32.4879 32.7604 27.2302 32.7604 20.8324C32.7604 17.7284 31.5426 14.8144 29.3637 12.6607ZM21.0963 30.5242C19.3659 30.5242 17.6355 30.0809 16.1615 29.194L15.777 29.004L12.0599 29.9541L13.0212 26.3435L12.7649 25.9634C9.94496 21.4659 11.2908 15.5112 15.9052 12.724C20.5195 9.93679 26.4797 11.2671 29.2996 15.828C32.1195 20.3888 30.7736 26.28 26.1593 29.0673C24.6852 30.0174 22.8908 30.5242 21.0963 30.5242ZM26.736 23.4929L26.0311 23.1762C26.0311 23.1762 25.0058 22.7328 24.3648 22.416C24.3007 22.416 24.2367 22.3526 24.1725 22.3526C23.9802 22.3526 23.8521 22.416 23.7239 22.4794C23.7239 22.4794 23.6599 22.5427 22.7626 23.5562C22.6985 23.6829 22.5703 23.7463 22.4422 23.7463H22.378C22.314 23.7463 22.1858 23.6829 22.1217 23.6196L21.8012 23.4929C21.0963 23.1762 20.4555 22.7961 19.9427 22.2893C19.8145 22.1627 19.6222 22.036 19.4941 21.9093C19.0455 21.4659 18.5968 20.959 18.2765 20.3889L18.2123 20.2623C18.1483 20.1989 18.1483 20.1356 18.0842 20.0089C18.0842 19.8822 18.0842 19.7555 18.1483 19.6921C18.1483 19.6921 18.4046 19.3754 18.5968 19.1854C18.7251 19.0586 18.7891 18.8687 18.9173 18.742C19.0455 18.5519 19.1096 18.2986 19.0455 18.1085C18.9814 17.7917 18.2123 16.0814 18.0201 15.7014C17.8919 15.5113 17.7638 15.448 17.5715 15.3846H16.8665C16.7383 15.3846 16.6102 15.448 16.482 15.448L16.4178 15.5113C16.2897 15.5747 16.1615 15.7014 16.0333 15.7647C15.9052 15.8914 15.841 16.018 15.7129 16.1448C15.2642 16.7149 15.0079 17.4117 15.0079 18.1085C15.0079 18.6152 15.1361 19.122 15.3284 19.5655L15.3925 19.7555C15.9693 20.959 16.7383 22.036 17.7638 22.9861L18.0201 23.2395C18.2123 23.4296 18.4046 23.5562 18.5328 23.7462C19.8787 24.8865 21.4167 25.71 23.1471 26.1534C23.3394 26.2167 23.5957 26.2167 23.788 26.2801H24.4289C24.7493 26.2801 25.1338 26.1534 25.3902 26.0267C25.5825 25.9001 25.7106 25.9001 25.8388 25.7734L25.967 25.6466C26.0952 25.5199 26.2234 25.4566 26.3515 25.33C26.4797 25.2033 26.6079 25.0766 26.672 24.9498C26.8002 24.6965 26.8642 24.3797 26.9283 24.0631V23.6196C26.9283 23.6196 26.8642 23.5562 26.736 23.4929Z" fill="white"/>
<defs>
<linearGradient id="paint0_linear_901_71" x1="21" y1="0" x2="21" y2="42" gradientUnits="userSpaceOnUse">
<stop stop-color="#42E760"/>
<stop offset="0.765625" stop-color="#29CB4A"/>
</linearGradient>
</defs>
</svg>
