<svg width="53" height="21" viewBox="0 0 53 21" fill="none" xmlns="http://www.w3.org/2000/svg">
<path fill-rule="evenodd" clip-rule="evenodd" d="M0.652728 19.7223C0.115757 19.1853 0.115757 18.3147 0.652728 17.7777L7.93046 10.5L0.652731 3.22227C0.11576 2.6853 0.11576 1.8147 0.652731 1.27773C1.1897 0.740755 2.0603 0.740755 2.59727 1.27773L10.8473 9.52773C11.3842 10.0647 11.3842 10.9353 10.8473 11.4723L2.59727 19.7223C2.0603 20.2592 1.1897 20.2592 0.652728 19.7223ZM8.90273 19.7223C8.36576 19.1853 8.36576 18.3147 8.90273 17.7777L16.1805 10.5L8.90273 3.22227C8.36576 2.6853 8.36576 1.8147 8.90273 1.27773C9.4397 0.740757 10.3103 0.740757 10.8473 1.27773L19.0973 9.52773C19.6342 10.0647 19.6342 10.9353 19.0973 11.4723L10.8473 19.7223C10.3103 20.2592 9.4397 20.2592 8.90273 19.7223Z" fill="#1E31DE"/>
<path fill-rule="evenodd" clip-rule="evenodd" d="M17.4027 19.7223C16.8658 19.1853 16.8658 18.3147 17.4027 17.7777L24.6805 10.5L17.4027 3.22227C16.8658 2.6853 16.8658 1.8147 17.4027 1.27773C17.9397 0.740755 18.8103 0.740755 19.3473 1.27773L27.5973 9.52773C28.1342 10.0647 28.1342 10.9353 27.5973 11.4723L19.3473 19.7223C18.8103 20.2592 17.9397 20.2592 17.4027 19.7223ZM25.6527 19.7223C25.1158 19.1853 25.1158 18.3147 25.6527 17.7777L32.9305 10.5L25.6527 3.22227C25.1158 2.6853 25.1158 1.8147 25.6527 1.27773C26.1897 0.740757 27.0603 0.740757 27.5973 1.27773L35.8473 9.52773C36.3842 10.0647 36.3842 10.9353 35.8473 11.4723L27.5973 19.7223C27.0603 20.2592 26.1897 20.2592 25.6527 19.7223Z" fill="#1E31DE"/>
<path fill-rule="evenodd" clip-rule="evenodd" d="M34.1527 19.7223C33.6158 19.1853 33.6158 18.3147 34.1527 17.7777L41.4305 10.5L34.1527 3.22227C33.6158 2.6853 33.6158 1.8147 34.1527 1.27773C34.6897 0.740755 35.5603 0.740755 36.0973 1.27773L44.3473 9.52773C44.8842 10.0647 44.8842 10.9353 44.3473 11.4723L36.0973 19.7223C35.5603 20.2592 34.6897 20.2592 34.1527 19.7223ZM42.4027 19.7223C41.8658 19.1853 41.8658 18.3147 42.4027 17.7777L49.6805 10.5L42.4027 3.22227C41.8658 2.6853 41.8658 1.8147 42.4027 1.27773C42.9397 0.740757 43.8103 0.740757 44.3473 1.27773L52.5973 9.52773C53.1342 10.0647 53.1342 10.9353 52.5973 11.4723L44.3473 19.7223C43.8103 20.2592 42.9397 20.2592 42.4027 19.7223Z" fill="#1E31DE"/>
</svg>
