<svg width="42" height="31" viewBox="0 0 42 31" fill="none" xmlns="http://www.w3.org/2000/svg">
<path d="M13.9064 0.316906C12.6241 0.399912 11.6965 0.745768 10.803 1.4859C10.2233 1.95626 9.99136 2.28828 8.38852 4.88911C7.61097 6.15495 6.94256 7.19943 6.90163 7.21326C6.81296 7.24785 6.67655 6.87432 6.67655 6.58381C6.67655 6.30021 6.45147 5.9336 6.21957 5.84368C5.8649 5.70533 5.04643 5.76759 4.20749 5.98202C3.4163 6.18953 1.81346 6.77057 1.64295 6.90891C1.47243 7.04725 1.34966 7.37927 1.34284 7.71821C1.34284 8.09865 1.42469 8.2785 1.71797 8.59668L1.92941 8.82495H3.51179H5.10099L5.23741 9.00479C5.54433 9.40598 5.55797 9.39215 3.45723 11.0246C2.08629 12.0898 1.67023 12.5602 1.42469 13.2934C1.24735 13.8122 0.98135 15.2164 0.844938 16.3646C0.688064 17.6235 0.626679 21.2896 0.735808 22.6107C0.98135 25.5505 1.68387 27.5288 2.55009 27.7502L2.7206 27.7917V29.2027C2.7206 30.5723 2.7206 30.6069 2.87066 30.7107C3.00025 30.8075 3.3481 30.8214 5.25787 30.8214C7.40636 30.8214 7.50184 30.8144 7.63144 30.683C7.75421 30.5585 7.76785 30.4547 7.76785 29.5071V28.4695H21.1362H34.5046V29.5071C34.5046 30.4547 34.5182 30.5585 34.641 30.683C34.7706 30.8144 34.8661 30.8214 37.0146 30.8214C38.9244 30.8214 39.2722 30.8075 39.4018 30.7107C39.5518 30.6069 39.5518 30.5723 39.5518 29.2027V27.7917L39.7155 27.7502C40.4658 27.5634 41.1206 25.9586 41.4343 23.5584C41.5844 22.3894 41.639 19.4012 41.5366 17.914C41.4343 16.4268 41.2229 14.7598 41.0524 14.0474C40.875 13.3211 40.5204 12.5948 40.118 12.1382C39.9406 11.9446 39.4359 11.5157 39.0062 11.1906C38.5765 10.8655 37.9217 10.3536 37.5602 10.0562C36.8372 9.46132 36.7759 9.34373 37.035 9.00479L37.1715 8.82495H38.7538C40.1521 8.82495 40.3567 8.81112 40.4863 8.70044C41.0592 8.23699 41.0592 7.23401 40.4863 6.85357C40.2203 6.68064 38.7538 6.15495 37.9627 5.95435C37.3693 5.80217 37.1033 5.7745 36.6122 5.79526C35.8483 5.82292 35.6982 5.94052 35.5891 6.61147C35.5072 7.10951 35.3913 7.30318 35.2753 7.15101C35.2344 7.10259 34.6137 6.09269 33.8908 4.91678C33.1678 3.73396 32.4107 2.54421 32.2061 2.26753C31.3808 1.16771 30.6305 0.697348 29.2527 0.40683C28.8162 0.316906 27.759 0.296156 21.7501 0.282322C17.9033 0.268486 14.377 0.289238 13.9064 0.316906ZM29.2868 1.97701C29.8871 2.06693 30.4941 2.36437 30.8692 2.75173C31.1284 3.0215 33.0859 6.09961 33.4133 6.74982C33.577 7.07492 33.5906 7.55912 33.4406 7.77355C33.386 7.85655 33.236 7.98106 33.12 8.05023C32.9154 8.16091 32.1992 8.16782 21.1362 8.16782C10.0186 8.16782 9.35705 8.16091 9.15243 8.04332C8.87279 7.89114 8.72273 7.60062 8.72273 7.2271C8.72273 6.985 8.82504 6.77057 9.34341 5.8921C10.2369 4.398 11.1918 2.94541 11.4578 2.68256C11.8466 2.2952 12.3649 2.08077 13.2243 1.94934C13.6404 1.88709 28.8435 1.91476 29.2868 1.97701ZM5.31925 14.9189C7.78831 15.915 7.82241 15.9496 8.10206 17.3261C8.27939 18.2322 8.28621 18.5227 8.1157 18.6749C7.98611 18.7925 7.92472 18.7856 6.57424 18.4743C3.98241 17.8794 3.39584 17.665 3.12302 17.2154C2.97979 16.9871 2.95932 16.8488 2.93886 16.0533C2.87748 14.0958 3.07527 14.0059 5.31925 14.9189ZM39.1494 14.5661C39.3063 14.7806 39.3882 15.7144 39.3131 16.4614C39.2313 17.3537 38.9107 17.6373 37.5398 18.0178C36.885 18.2045 34.4159 18.7856 34.2863 18.7856C34.1499 18.7856 34.0272 18.5366 34.0272 18.2668C34.0272 17.9071 34.1909 17.0148 34.3409 16.5583C34.5319 15.9703 34.9275 15.7213 37.0146 14.8774C38.1263 14.4278 38.3378 14.3586 38.6584 14.3725C38.9585 14.3932 39.0471 14.4209 39.1494 14.5661ZM30.2349 15.3962C31.7695 15.4515 32.0355 15.4792 32.2811 15.6037C32.8131 15.8596 32.9222 16.3577 32.6562 17.2362C32.3288 18.3083 31.79 19.1245 31.0397 19.6848C30.4122 20.1552 29.7916 20.4042 28.5639 20.667L27.5135 20.8953H21.0339C13.92 20.8953 14.2474 20.9091 12.856 20.4664C11.1986 19.9407 10.3801 19.2006 9.74582 17.6443C9.473 16.9664 9.39797 16.2954 9.56849 15.9634C9.62987 15.8389 9.80039 15.6798 9.95044 15.6037C10.196 15.4723 10.4279 15.4515 12.2899 15.3893C13.4221 15.3547 14.8886 15.3132 15.5433 15.2994C17.8282 15.2579 28.482 15.327 30.2349 15.3962ZM5.72849 22.4932C6.98348 22.9358 8.04749 23.3301 8.10206 23.3716C8.22483 23.4754 8.15662 23.9527 7.97247 24.3193C7.75421 24.7481 7.37225 24.9695 6.78568 24.9971C6.05588 25.0317 3.76416 24.5406 3.42313 24.2778C3.0821 24.0149 2.80245 23.3785 2.70696 22.6384C2.63876 22.1127 2.64558 22.0297 2.74789 21.8706C2.94568 21.5524 3.23215 21.6147 5.72849 22.4932ZM39.5246 21.9398C39.6132 22.1542 39.6132 22.2511 39.5246 22.7768C39.3404 23.8489 38.8971 24.4507 38.1945 24.5614C38.0581 24.5821 37.492 24.6928 36.9259 24.8035C35.6641 25.0594 35.2481 25.0663 34.8388 24.8519C34.3136 24.5683 33.8908 23.6137 34.184 23.3647C34.2318 23.3232 35.2822 22.9289 36.5167 22.4932C38.14 21.919 38.8561 21.6977 39.0949 21.6977C39.4086 21.6908 39.4291 21.7046 39.5246 21.9398ZM29.1504 23.5307C29.3755 23.5861 29.6824 23.7106 29.8325 23.8005C30.3304 24.091 31.1557 24.7965 31.2785 25.0317C31.4285 25.3292 31.4285 25.8895 31.2716 26.1316C30.9988 26.5535 31.5376 26.5327 21.1294 26.5327C13.2789 26.5327 11.6147 26.5189 11.4305 26.4359C10.8439 26.1938 10.6598 25.5228 11.0213 24.9902C11.2464 24.6651 11.9557 24.0564 12.399 23.8074C13.1152 23.4131 12.8151 23.427 21.1021 23.427C27.8 23.42 28.7958 23.4339 29.1504 23.5307Z" fill="#1E31DE"/>
</svg>
