<svg width="34" height="42" viewBox="0 0 34 42" fill="none" xmlns="http://www.w3.org/2000/svg">
<path d="M8.53134 0.14537C7.70089 0.557293 7.65156 1.75268 8.45734 2.22114C8.73689 2.38268 8.90134 2.38268 20.1 2.40691L31.4713 2.42307L31.4878 17.6804L31.5124 32.9458L31.6851 33.1638C32.236 33.8908 33.1816 33.8988 33.7078 33.18L33.8969 32.9134V16.8646V0.815758L33.7242 0.5896C33.6338 0.468449 33.4282 0.282677 33.2802 0.177677L33.0089 -1.52588e-05H20.914C9.56734 -1.52588e-05 8.80267 0.00806427 8.53134 0.14537Z" fill="#1E31DE"/>
<path d="M4.83124 3.77192C4.00902 4.18384 3.94324 5.37115 4.72435 5.87192C4.93813 6.00922 5.52191 6.0173 16.3588 6.04153L27.7712 6.05769V21.2665C27.7712 35.9585 27.7795 36.4754 27.9275 36.75C28.1412 37.1458 28.7168 37.4285 29.1608 37.3558C29.5555 37.2911 29.8597 37.0731 30.057 36.7258C30.1886 36.4835 30.1968 35.4819 30.1968 20.5154C30.1968 4.70884 30.1968 4.56345 30.0324 4.28884C29.9419 4.13538 29.761 3.94153 29.6377 3.84461L29.4075 3.67499L17.2632 3.65076C5.82613 3.63461 5.10257 3.64268 4.83124 3.77192Z" fill="#1E31DE"/>
<path d="M0.925774 7.71344C0.498218 7.85882 0.161107 8.25459 0.103552 8.67459C0.078885 8.86036 0.0624406 16.0892 0.078885 24.7557C0.103552 40.0938 0.111774 40.5138 0.259774 40.7642C0.350218 40.9015 0.555774 41.0954 0.720218 41.1842L1.03266 41.3538H13.1029C24.4413 41.3538 25.1978 41.3457 25.4691 41.2084C25.6253 41.1357 25.8391 40.95 25.9378 40.7965L26.1269 40.5219V24.5377C26.1269 6.72805 26.1762 8.18998 25.5596 7.81844L25.2636 7.63267L13.2591 7.61651C3.08822 7.60036 1.20533 7.61651 0.925774 7.71344ZM17.0167 12.9957L17.0413 15.9761L17.2469 16.1942C17.6662 16.6384 17.6662 16.6384 20.8236 16.6384H23.7424V27.7846V38.9307H13.1358H2.52911V24.4731V10.0154H9.76466H16.992L17.0167 12.9957Z" fill="#1E31DE"/>
<path d="M11.9683 19.0212C10.4471 19.3846 9.48514 20.2569 8.97537 21.7269C8.74514 22.3812 8.76159 23.8027 9.00826 24.675C9.41937 26.1046 10.2909 27.4454 11.2447 28.0996C11.9765 28.6085 12.5356 28.7781 13.3414 28.7377C13.9169 28.7135 14.0978 28.6731 14.6323 28.4146C15.9231 27.7846 17.0414 26.2015 17.4607 24.4327C17.6087 23.7704 17.6334 22.5023 17.5018 21.9369C17.1647 20.5235 16.0465 19.4492 14.5007 19.0535C13.81 18.8758 12.6507 18.8596 11.9683 19.0212Z" fill="#1E31DE"/>
<path d="M8.32531 29.4726C7.60176 29.8119 6.84531 30.1834 6.63976 30.2803C6.07243 30.5792 5.38176 31.3223 5.01998 32.033L4.70754 32.663L4.68287 34.545L4.6582 36.4269H13.2093H21.7686V34.7873C21.7686 33.8907 21.7275 32.9942 21.6782 32.8003C21.522 32.1219 21.1849 31.5565 20.5682 30.9507C20.0091 30.4015 19.8775 30.3207 18.3564 29.6019C17.4684 29.1819 16.712 28.8346 16.6709 28.8346C16.6051 28.8346 16.268 29.505 15.0429 32.0169L14.7304 32.655L14.418 31.815C14.2453 31.3546 14.0315 30.7892 13.9493 30.5711L13.7931 30.1673L13.2011 30.1834L12.6009 30.1915L12.1404 31.4192C11.8855 32.0896 11.6553 32.655 11.6389 32.6792C11.6142 32.6953 11.1784 31.8553 10.6686 30.8053C10.1506 29.7634 9.70665 28.8911 9.68198 28.875C9.65731 28.8669 9.04887 29.1334 8.32531 29.4726Z" fill="#1E31DE"/>
</svg>
