<svg width="50" height="42" viewBox="0 0 50 42" fill="none" xmlns="http://www.w3.org/2000/svg">
<path d="M28.971 0.0490198C28.665 0.122532 28.4644 0.213547 28.2094 0.399078C27.7164 0.763139 27.4342 1.30223 27.3934 1.96734C27.3628 2.44692 27.2268 2.70596 26.9038 2.9125C26.795 2.98251 26.7236 2.99301 26.1048 3.01051C25.4894 3.03152 25.401 3.04202 25.1732 3.12253C24.585 3.33607 24.1532 3.81565 23.9968 4.43175C23.9322 4.68029 23.9254 5.71296 23.9866 5.9195C24.041 6.11203 24.2688 6.36057 24.4728 6.45859L24.6428 6.5426H29.3518C32.4934 6.5426 34.1016 6.5286 34.1866 6.5076C34.3804 6.45159 34.5946 6.26256 34.7068 6.05252C34.802 5.86699 34.8088 5.83899 34.819 5.3349C34.8292 4.95334 34.8156 4.7398 34.7782 4.54727C34.632 3.83665 34.1696 3.30806 33.4998 3.09453C33.3672 3.05252 33.1258 3.02802 32.6498 3.01051C32.0072 2.98951 31.9834 2.98601 31.8304 2.89499C31.6502 2.78648 31.504 2.62195 31.436 2.45042C31.4088 2.38741 31.3748 2.16337 31.3578 1.95334C31.2864 1.06069 30.7798 0.381576 29.974 0.105029C29.6884 0.00701284 29.26 -0.0174909 28.971 0.0490198ZM29.8244 1.20771C30.144 1.38624 30.3038 1.66629 30.3038 2.05485C30.3038 2.45392 30.0964 2.77948 29.7326 2.944C29.5422 3.03152 29.1614 3.02102 28.9642 2.9195C28.5494 2.71296 28.3386 2.19838 28.4848 1.7433C28.563 1.50876 28.8282 1.22172 29.0458 1.1412C29.277 1.05369 29.6034 1.08169 29.8244 1.20771Z" fill="#1E31DE"/>
<path d="M17.833 4.23223C17.2244 4.39676 16.762 4.83783 16.5376 5.47143L16.4492 5.71998V20.4224V35.1249L16.524 35.3699C16.7212 36.007 17.136 36.4411 17.7582 36.6581L17.9792 36.7351L25.6224 36.7456C29.9404 36.7491 33.2622 36.7421 33.2622 36.7246C33.2622 36.7071 33.218 36.5146 33.1602 36.2941C33.0548 35.8775 32.946 35.2579 32.9052 34.8518L32.8814 34.6173H25.6938H18.5062V22.6103V10.6033L29.3794 10.6103L40.2492 10.6208L40.2594 17.664C40.2662 23.2649 40.2764 24.7106 40.3104 24.7106C40.3308 24.7106 40.443 24.6966 40.5552 24.6756C40.9802 24.6056 41.3882 24.5706 41.8404 24.5671L42.3062 24.5636L42.2994 15.1085L42.2892 5.64996L42.2076 5.43993C42.024 4.96735 41.7214 4.61029 41.3168 4.38976C40.8952 4.16222 40.902 4.16222 38.114 4.16222C35.7374 4.16222 35.6048 4.16572 35.6218 4.22173C35.7068 4.50527 35.7374 5.49244 35.6762 5.91251C35.632 6.21006 35.4178 6.65463 35.2172 6.86817C35.0166 7.0817 34.7616 7.25673 34.5032 7.35825L34.2992 7.43526L29.4712 7.44576C26.1698 7.44926 24.5888 7.44226 24.4698 7.41776C23.9938 7.31624 23.4872 6.92068 23.273 6.4866C23.0724 6.07704 23.0554 5.95101 23.0724 5.11437C23.0826 4.69431 23.0996 4.31274 23.1132 4.25673L23.137 4.16222L20.6108 4.16572C18.2308 4.16572 18.0676 4.16922 17.833 4.23223Z" fill="#1E31DE"/>
<path d="M24.7996 12.5006C24.7418 12.5461 24.3406 13.0292 23.9088 13.5788C23.477 14.1284 23.1132 14.58 23.103 14.5835C23.0894 14.5905 22.9262 14.4574 22.7392 14.2929C22.3788 13.9744 22.304 13.9288 22.1408 13.9288C21.8212 13.9288 21.6206 14.3244 21.7974 14.601C21.845 14.678 22.5794 15.3431 22.9058 15.6021C23.0248 15.6966 23.2424 15.7036 23.375 15.6161C23.4974 15.5391 25.364 13.1797 25.432 13.0222C25.5 12.8577 25.4626 12.6826 25.3232 12.5391C25.2314 12.4446 25.1872 12.4236 25.058 12.4236C24.956 12.4236 24.8744 12.4481 24.7996 12.5006Z" fill="#1E31DE"/>
<path d="M10.6521 13.1132C9.17309 13.1552 8.28229 13.3197 7.80289 13.6348C7.25209 13.9988 6.92569 14.3279 6.49389 14.951C6.10629 15.5111 5.40249 16.7258 4.70209 18.042C4.52529 18.3676 4.32809 18.6931 4.26009 18.7666C4.09689 18.9382 3.92009 18.9837 3.51209 18.9557C2.70629 18.9032 1.99909 18.8927 1.64889 18.9312C0.540494 19.0502 0.0372942 19.4527 0.231094 20.0618C0.387494 20.5519 0.737694 20.8285 1.64209 21.175C2.48189 21.4971 2.50909 21.5496 2.10109 22.1027C1.40069 23.0618 0.965494 24.5076 0.826094 26.3629C0.798894 26.706 0.792094 28.3022 0.798894 31.4317L0.809094 36L0.883894 36.168C0.996094 36.4131 1.26809 36.6896 1.51629 36.8086L1.72709 36.9102H3.20609H4.68509L4.91289 36.7981C5.18829 36.6651 5.39569 36.4586 5.51469 36.196C5.59969 36.0035 5.60309 35.979 5.62009 35.1599C5.64049 34.2287 5.64729 34.1937 5.86829 34.0572C5.97369 33.9907 6.07569 33.9872 10.4583 33.9872H14.9361V33.0945V32.2019H13.6611C12.3079 32.2019 12.2399 32.1949 12.1039 32.0338C12.0223 31.9428 11.7401 30.9697 11.7401 30.7911C11.7401 30.6266 11.8183 30.4831 11.9441 30.4026C12.0291 30.3536 12.2093 30.3466 13.4877 30.3466H14.9361V25.9708V21.5951H10.1013C6.83049 21.5951 5.22229 21.5811 5.13389 21.5566C4.97409 21.5111 4.77349 21.3361 4.71569 21.1855C4.66129 21.0525 4.65449 20.867 4.70209 20.741C4.75649 20.5869 7.72809 15.8156 7.92189 15.5636C8.26189 15.126 8.77529 14.7515 9.30229 14.5519C9.90069 14.3279 9.84969 14.3314 12.5119 14.3314H14.9361V13.7083V13.0887L12.9573 13.0957C11.8659 13.0992 10.8289 13.1062 10.6521 13.1132ZM4.95709 24.5391C5.03189 24.5601 5.81389 24.9662 6.69109 25.4387C7.88109 26.0829 8.32309 26.3384 8.42849 26.4469C8.85689 26.8845 8.70729 27.6861 8.14289 27.9732L7.98309 28.0537H6.11309C4.00849 28.0537 4.08329 28.0607 3.67869 27.7806C3.28769 27.5146 3.03609 27.0315 3.03609 26.5519C3.03609 26.1529 3.13129 25.5928 3.24009 25.3617C3.41009 24.9907 3.74329 24.6931 4.12409 24.5671C4.33829 24.4971 4.75309 24.4831 4.95709 24.5391Z" fill="#1E31DE"/>
<path d="M27.2615 13.7853C26.7311 14.0303 26.6869 14.8075 27.1833 15.1435L27.3261 15.2415L31.8821 15.252L36.4381 15.259L36.6183 15.1715C36.9141 15.021 37.0739 14.6884 37.0195 14.3489C36.9855 14.1458 36.8087 13.8938 36.6319 13.7993L36.4823 13.7188H31.9399C27.6185 13.7188 27.3907 13.7223 27.2615 13.7853Z" fill="#1E31DE"/>
<path d="M24.844 17.7095C24.8032 17.727 24.4054 18.1996 23.9634 18.7666C23.518 19.3302 23.1406 19.8063 23.127 19.8238C23.11 19.8413 22.9706 19.7433 22.8006 19.5963C22.6374 19.4528 22.4572 19.2987 22.4028 19.2567C22.2192 19.1097 21.8928 19.1797 21.7874 19.3898C21.7262 19.5123 21.7228 19.7293 21.7806 19.8343C21.8316 19.9288 22.8822 20.8565 22.9876 20.8985C23.11 20.9475 23.2732 20.937 23.3752 20.867C23.5214 20.7725 25.4322 18.3256 25.4594 18.2031C25.5138 17.9405 25.3098 17.6745 25.0582 17.678C24.98 17.678 24.8814 17.692 24.844 17.7095Z" fill="#1E31DE"/>
<path d="M27.2615 19.0362C26.7311 19.2812 26.6869 20.0584 27.1833 20.3944L27.3261 20.4924L31.8651 20.5029C36.8801 20.5134 36.5639 20.5274 36.7951 20.2929C36.9651 20.1214 37.0161 19.9953 37.0195 19.7398C37.0195 19.5508 37.0025 19.4843 36.9243 19.3442C36.8733 19.2532 36.7645 19.1342 36.6897 19.0817L36.5469 18.9872L31.9739 18.9802C27.6049 18.9697 27.3907 18.9732 27.2615 19.0362Z" fill="#1E31DE"/>
<path d="M24.8228 22.9638C24.7888 22.9813 24.4012 23.4574 23.9592 24.021C23.5138 24.5846 23.1398 25.0572 23.1262 25.0747C23.1126 25.0922 22.9698 24.9907 22.8066 24.8471C22.6434 24.7036 22.4632 24.5531 22.4054 24.5076C22.2082 24.3641 21.892 24.4306 21.7866 24.6406C21.7186 24.7736 21.722 24.9732 21.79 25.0887C21.8478 25.1867 22.8882 26.1109 22.9868 26.1529C23.0956 26.1984 23.2826 26.1809 23.3744 26.1179C23.5206 26.0233 25.4314 23.5729 25.4586 23.4504C25.4892 23.3069 25.4212 23.1214 25.3022 23.0128C25.224 22.9463 25.1594 22.9253 25.0404 22.9253C24.952 22.9253 24.8534 22.9428 24.8228 22.9638Z" fill="#1E31DE"/>
<path d="M27.4649 24.217C27.0875 24.2835 26.8359 24.5951 26.8359 24.9977C26.8359 25.3267 27.0467 25.6278 27.3425 25.7223C27.4377 25.7503 28.6923 25.7608 31.9563 25.7608C37.0087 25.7608 36.5803 25.7818 36.8387 25.4877C37.2331 25.0397 36.9849 24.336 36.3933 24.2205C36.1859 24.182 27.6893 24.1785 27.4649 24.217Z" fill="#1E31DE"/>
<path d="M40.9466 25.9883C39.1412 26.2544 37.618 27.0595 36.3566 28.4072C35.221 29.6219 34.5036 31.1447 34.2622 32.853C34.1908 33.3501 34.1806 34.5228 34.2452 34.9498C34.388 35.9265 34.6294 36.7421 34.9932 37.5053C36.1628 39.9382 38.4102 41.5834 41.0486 41.9405C41.5246 42.0035 42.582 41.993 43.0682 41.9195C44.2174 41.748 45.319 41.3209 46.2676 40.6803C46.7606 40.3477 47.0122 40.1377 47.4508 39.6966C47.8928 39.2556 48.1682 38.9125 48.5082 38.3874C50.0416 36.021 50.2286 32.93 48.991 30.3816C47.8792 28.1027 45.8732 26.5379 43.4286 26.0514C43.024 25.9708 42.8676 25.9603 42.1196 25.9498C41.528 25.9428 41.171 25.9533 40.9466 25.9883ZM45.7304 29.9755C46.1146 30.161 46.339 30.5496 46.3084 30.9767C46.3016 31.1167 46.2642 31.2637 46.22 31.3547C46.1418 31.5123 41.9802 36.8121 41.7014 37.1097C41.3988 37.4317 40.9534 37.5263 40.5828 37.3477C40.3924 37.2532 38.1144 35.2789 37.9036 35.0268C37.584 34.6453 37.6146 34.0222 37.9716 33.6546C38.1858 33.4341 38.3388 33.3746 38.6856 33.3746C39.08 33.3746 39.0902 33.3816 40.0592 34.2287C40.4774 34.5963 40.831 34.8973 40.8446 34.8973C40.8616 34.8973 41.698 33.8542 42.7044 32.5764C43.7074 31.3022 44.5778 30.2135 44.6356 30.1575C44.9076 29.888 45.3802 29.8075 45.7304 29.9755Z" fill="#1E31DE"/>
<path d="M24.8066 28.2287C24.7522 28.2672 23.2256 30.1715 23.1236 30.3221C23.1134 30.3431 22.9604 30.2345 22.7836 30.0805C22.6102 29.9265 22.43 29.7725 22.3824 29.741C22.2804 29.6675 22.073 29.664 21.9404 29.734C21.7398 29.8425 21.6684 30.1785 21.8078 30.3606C21.8928 30.4691 22.7326 31.2182 22.9128 31.3442C23.059 31.4457 23.2086 31.4563 23.3582 31.3687C23.501 31.2882 25.4288 28.8378 25.4594 28.7013C25.49 28.5543 25.422 28.3687 25.303 28.2637C25.1806 28.1622 24.9256 28.1412 24.8066 28.2287Z" fill="#1E31DE"/>
<path d="M27.4311 29.4679C27.1761 29.5344 26.9449 29.7409 26.8701 29.979C26.8463 30.0525 26.8361 30.203 26.8429 30.315C26.8633 30.5916 26.9891 30.7841 27.2407 30.9136L27.4277 31.0117H30.3721H33.3199L33.4627 30.6301C33.5409 30.4201 33.6871 30.0735 33.7891 29.8565C33.8911 29.6429 33.9761 29.4609 33.9761 29.4504C33.9761 29.4259 27.5399 29.4434 27.4311 29.4679Z" fill="#1E31DE"/>
</svg>
